<?xml version="1.0" encoding="utf-8"?>
<!-- Generator: Adobe Illustrator 24.0.1, SVG Export Plug-In . SVG Version: 6.00 Build 0)  -->
<svg version="1.1" id="Capa_1" xmlns="http://www.w3.org/2000/svg" xmlns:xlink="http://www.w3.org/1999/xlink" x="0px" y="0px"
	 viewBox="0 0 705.2 705.2" style="enable-background:new 0 0 705.2 705.2;" xml:space="preserve">
<style type="text/css">
	.st0{fill:#C2CBDA;}
</style>
<g>
	<g>
		<path class="st0" d="M184.1,437.9l-12.4-3.3c0.9-2.5,1.1-5.3,0.6-7.5c-3.9-20.9-16-36.4-32.6-48.8c-5.5-4.7-15.8-12.9-22.1-14.1
			l-17.8,41.2c0,0,38.3,16.2,24.5,40.6c0,0-10.8,20.4-45.8-1.1l-20.4,37c0,0,11.9,19.1,41,22.9c17.1,3.3,33.4,0,49.3-5.3
			c2.2-0.9,3.6-1.7,4.4-3.3l19.6,1.9L184.1,437.9z"/>
		<polygon class="st0" points="216.6,446.5 191,439.9 179.9,498.3 206.2,501.1 		"/>
		<polygon class="st0" points="489.3,451.7 499.5,506.3 526,503.9 514.7,445.1 		"/>
		<path class="st0" d="M568.2,234.4l36.7-19.3c0,0-8.3-19.6-21.8-43.6c8.6-3.6,14.1-6.9,14.1-15.5c0-7.2-0.9-11.3,1.1-15.5
			c2.7,1.9,6,3.3,9.6,3.3c8.9,0,16-7.2,16-16s-7.2-16-16-16c-8.9,0-16,7.2-16,16c0,0.6,0,1.1,0,1.7c-5,6.6-2.7,16.5-2.7,22.4
			c0,6.6-6.6,7.7-12.2,9.3v-0.3c-17.1-28.4-45.8-44.9-45.8-44.9l-22.9,24.2c0,0,20.7,22.9,35.9,44.9
			C559.1,207.5,568.2,234.4,568.2,234.4z"/>
		<path class="st0" d="M342.6,81.4c35-2.7,78.9,2.7,78.9,2.7l4.4-17.1c0,0-23.4-12.6-64-11.9l-0.6-8c12.9-0.9,21.8-10.5,21.8-23.7
			S372.9-0.3,359.7,0c-12.6,0.3-23.1,10.8-23.1,23.4c0,9.9,6.9,19.1,15.8,22.4l0.9,9.6c-7.7,0.6-16,1.4-24.5,3
			c-26.5,5-43.9,17.9-43.9,17.9l6.3,17.9C291.1,94.4,307.6,84.4,342.6,81.4z"/>
		<path class="st0" d="M647.1,486c-5.5-11.3-11.3-22.4-16.8-32.8c-7.7,3-14.3,6.6-20.9,8.3c-11.6,3-24.5-2.5-28.7-10.5
			c-4.4-8.6-1.1-19.6,8.6-28.4c1.4-1.1,2.5-2.5,4.2-3.3c4.4-2.7,8.9-5.3,13.8-8.3c-5.8-13.2-11.3-26.5-17.4-40.3
			c-2.7,1.4-4.7,2.5-6.3,3.3c-21.5,13.2-39.4,29.5-44.6,55.7c-0.6,2.7-0.9,6.6-0.6,9.3l-16,4.2l11.3,59.5l24-2.5
			c0.9,1.7,2.5,2.7,5,3.3c9.6,1.9,19.3,5.3,29,6c20.1,1.7,38.3-3.6,53.2-17.9C645.9,490.6,647.6,487.3,647.1,486z"/>
		<path class="st0" d="M150.7,315c0.9,5.3,3.3,7.2,8.3,8.6c42.7,11.3,86.3,17.9,130.4,20.4c30.6,1.7,61.2,0.3,91.8-1.1
			c38.6-1.7,76.1-9.6,112.7-21.2c29.2-9.1,56.8-21.5,83.6-37.5C565.7,236.5,532,167.5,488,129.8c-21.5-18.5-54.6-36.1-88.8-38.6
			c-38-3-75.9,0.9-112.5,11.9c-35.9,10.8-68.7,27.3-94.8,54.9C149.4,202.4,140.8,256.2,150.7,315z M454.3,157.8
			c26.7,0.9,40.6,19.6,40.6,43.9c0,24.2-18.2,43.9-40.6,43.9s-40.3-14.9-40.6-43.9C414.9,176.5,431.7,159.4,454.3,157.8z
			 M281.9,158.6c38,0,69,30.6,69,68.4s-30.8,68.4-69,68.4s-69-30.6-69-68.4C213,189.3,243.9,158.6,281.9,158.6z"/>
		<path class="st0" d="M82.9,168c1.4,0,2.7-0.3,4.2-0.6c1.7,0.9,3.6,1.4,6,1.7c11.6,1.4,11.6-4.2,15.8,6.3c2.2,5.5,6,10.8,8.9,14.3
			c-6.6,11.9-16,33.1-16,57.6l38.3,16c0,0-0.9-27.3,2.5-40.3v-0.3l0,0c1.1-5.5,2.5-11.3,4.2-16.8c8-25.7,34.4-52.6,34.4-52.6
			l-15.4-13.3c0,0-22.6,11.9-42.5,40.3l0,0c0,0,0,0.3-0.3,0.6c-3.6-4.7-4.4-12.4-8-17.9c-4.4-6.3-5.8-2.7-16.5-3.6
			c-0.6,0-1.1,0-1.7-0.3c1.1-2.2,1.7-4.4,1.7-6.9c0-8.9-7.2-16-16-16s-16,7.2-16,16C66.7,160.8,74.1,168,82.9,168z"/>
		<path class="st0" d="M177.8,678.4l137.6,11.6c1.9-10.2-12.6-24.5-12.6-24.5V648l0,0c-37-16.8-84.3-17.9-84.3-17.9l3,12.5
			C191,648.6,177.8,678.4,177.8,678.4z"/>
		<path class="st0" d="M172.5,701.8h142.8v-7.5l-137.6-12.2C174.5,684.5,172.5,701.8,172.5,701.8z"/>
		<path class="st0" d="M403.8,644.5c25.7-12.9,86-19.1,86-19.1c0.6-0.6,0.6-8.6,0.3-14.9c2.7-1.1,5.5-2.2,8.3-3.3
			c5.3-2.2,7.2-4.4,5.5-10.5c-5.5-21.8-9.6-44.2-15.8-65.7c-2.2-7.7-4.4-15.2-6.9-22.6l10.8-1.1L481.8,454l-17.4,4.4
			c-1.9-5.5-1.4-5.8,6-9.3c39.7-18.2,71.4-44.6,90.2-84.6c9.9-21.2,16-43.6,14.3-68.7C439.5,368,299.7,371.8,155,330.1
			c10.9,60.7,43.7,102.3,98.8,126.5l-30.3-7.7l-10.2,53.5l17.1,1.7c-10.5,24.5-17.6,50.2-23.4,76.4c-2.5,12.2-2.5,12.2,8.3,17.9
			c1.1,0.6,2.2,1.1,3.3,1.7c-0.3,4.7-0.9,21.5,0,22.6c0,0,60.4,6,86,19.1c0,0,1.1-13.8,3.9-14.1c23.1,3.6,46.9,4.7,70.9,4.4
			c6.6-0.3,13.5-0.6,20.1-0.9C402.7,631,403.8,644.5,403.8,644.5z M330,596.5l-33.7-53.2l20.4-62.5l77.2-9.9l35.9,44.6l-16,71.4
			L330,596.5z"/>
		<path class="st0" d="M406.1,651.1v17.6c0,0-14.6,14.6-12.6,24.5L531,681.7c0,0-12.9-29.8-43.6-36.1l3-12.5
			C490.4,633.1,443,634.6,406.1,651.1z"/>
		<path class="st0" d="M530.9,685.6l-137.6,12.2v7.5h142.8C535.9,705.1,534.3,687.8,530.9,685.6z"/>
	</g>
</g>
</svg>
