<svg xmlns="http://www.w3.org/2000/svg" width="1240" height="1240"><path d="M616.5 22l-534 .5-8 2.745c-13.15 4.511-22.014 10.036-31.516 19.644-9.678 9.786-16.36 21.383-19.365 33.611-.947 3.85-2.035 8.125-2.42 9.5-.384 1.375-.474 242.8-.199 536.5l.5 534 2.745 8c8.449 24.628 25.846 42.004 50.255 50.195 7.667 2.573 9.051 2.701 33.25 3.083l25.25.399-.033-98.339-.033-98.338-8.717-4.172c-15.021-7.189-26.841-18.786-34.48-33.828-5.059-9.963-6.835-17.028-7.441-29.61-.679-14.109 1.09-23.527 6.651-35.39 9.188-19.604 23.799-32.49 45.553-40.174l8-2.826 61.245-.293 61.246-.293-9.089-10.207c-28.097-31.553-43.19-67.55-45.908-109.492-1.228-18.96-1.237-254.927-.01-274.852 1.078-17.503 3.685-31.521 8.622-46.363 17.786-53.467 60.193-95.49 114.042-113.009 23.493-7.643 28.452-8.159 83.602-8.702l48.75-.48V250.88l-7.286-7.19c-10.516-10.378-14.638-19.85-14.69-33.758-.076-20.622 15.634-40.156 36.088-44.871 20.57-4.743 42.303 6.036 51.653 25.617 3.674 7.694 3.735 8.019 3.735 19.874 0 11.92-.041 12.135-3.765 19.67-2.861 5.789-5.444 9.173-10.75 14.086L513 250.775V314h208V250.775l-6.985-6.467c-5.295-4.903-7.89-8.3-10.73-14.046-3.441-6.961-3.776-8.403-4.115-17.671-.307-8.385-.002-11.181 1.807-16.537 10.933-32.382 50.768-42.534 75.303-19.191 9.754 9.279 14.748 20.697 14.696 33.597-.054 13.353-4.315 22.992-14.69 33.23L769 250.88V314l41.25.001c22.688 0 46.2.467 52.25 1.038 71.154 6.709 130.961 54.112 152.945 121.224 5.003 15.273 7.499 28.699 8.571 46.1 1.213 19.711 1.213 254.563 0 274.274-2.601 42.235-17.663 78.34-45.918 110.07l-9.089 10.207 61.246.307c61.108.307 61.261.313 68.245 2.642 26.964 8.992 46.19 29.879 52.033 56.527 2.201 10.038 1.564 28.128-1.306 37.11-6.533 20.444-20.631 36.823-39.444 45.828l-8.717 4.172-.033 98.233-.033 98.232 24.75.268c13.612.147 25.875-.048 27.25-.432 1.375-.385 5.65-1.473 9.5-2.42 15.742-3.869 34.431-16.779 42.65-29.462 1.753-2.706 3.561-4.919 4.018-4.919.458 0 .72-.361.582-.802-.322-1.033 4.509-11.591 5.506-12.033.416-.185.534-.696.262-1.136-.43-.695.296-3.688 2.19-9.029.293-.825.648-2.85.79-4.5.338-3.922.338-1065.078 0-1069-.142-1.65-.497-3.675-.79-4.5-1.894-5.341-2.62-8.334-2.19-9.029.272-.44.154-.951-.262-1.136-.997-.442-5.828-11-5.506-12.033.138-.441-.124-.802-.582-.802-.457 0-2.249-2.188-3.982-4.862-3.597-5.552-15.672-17.303-20.167-19.628-1.661-.859-3.019-2-3.019-2.536s-.361-.861-.802-.724c-.786.245-11.213-4.234-12.198-5.239-.275-.281-.95-.534-1.5-.563-2.639-.138-8.577-1.763-9.012-2.467-.27-.436-1.344-.57-2.387-.297-1.043.273-2.73.118-3.749-.344-1.018-.462-242.152-.615-535.852-.34M372 363.082c-23.39 2.546-47.038 12.583-66.462 28.208-23.992 19.3-39.944 46.271-46.259 78.21-1.622 8.205-1.779 16.595-1.779 95v86l2.452 4.945c3.718 7.499 14.15 17.841 25.971 25.745 111.601 74.626 413.129 91.003 592.577 32.184 48.625-15.938 85.948-38.566 95.548-57.929l2.452-4.945v-86c0-78.405-.157-86.795-1.779-95-11.506-58.197-56.28-99.989-114.024-106.428-11.515-1.283-476.896-1.274-488.697.01m36 181.857c-7.675 1.543-13.996 6.675-17.317 14.061-1.588 3.532-2.12 7.295-2.473 17.5-.802 23.209 1.897 31.58 12.243 37.976 4.25 2.628 5.827 3.024 12.047 3.024 6.221 0 7.797-.396 12.052-3.026 3.03-1.874 6.048-4.89 7.922-7.918l3.026-4.89.324-18.583c.368-21.159-.214-24.289-5.633-30.305-5.629-6.25-14.502-9.384-22.191-7.839m408.718.155c-5.615 1.318-8.956 3.32-12.984 7.779-5.338 5.908-5.925 9.102-5.558 30.21l.324 18.583 3.026 4.89c1.874 3.028 4.892 6.044 7.922 7.918 4.255 2.63 5.831 3.026 12.052 3.026 6.22 0 7.797-.396 12.047-3.024 10.346-6.396 13.045-14.767 12.243-37.976-.496-14.361-2.034-19.537-7.393-24.897-5.365-5.364-14.663-8.156-21.679-6.509M257.308 741.25c.34 11.138 1.32 24.164 2.179 28.948 9.766 54.375 53.883 97.093 108.675 105.229C377.569 876.824 405.459 877 617 877c262.679 0 248.579.325 268.967-6.195 20.265-6.481 37.636-17.203 53.033-32.732 18.322-18.479 29.925-40.322 35.098-66.073 1.988-9.895 3.965-51 2.453-51-.42 0-5.685 2.966-11.702 6.591-88.538 53.345-269.005 79.973-443.136 65.385-109.568-9.18-201.082-33.31-256.297-67.579-3.896-2.418-7.453-4.397-7.904-4.397-.451 0-.543 9.112-.204 20.25M334 1068.433V1220h566v-151.567c0-143.881-.089-151.541-1.75-151.05-6.327 1.874-19.031 4.681-26.25 5.8-12.531 1.942-497.469 1.942-510 0-7.219-1.119-19.923-3.926-26.25-5.8-1.661-.491-1.75 7.169-1.75 151.05M147.385 926.617c-10.265 3.641-17.401 14.05-17.363 25.329.049 14.601 9.869 25.508 24.132 26.802 11.173 1.013 20.982-4.135 26.346-13.827 2.594-4.689 2.997-6.434 2.977-12.921-.018-5.757-.532-8.461-2.212-11.634-6.636-12.539-20.932-18.341-33.88-13.749m79.989-.085c5.455 14.215 5.497 36.855.094 50.718-.64 1.643 1.135 1.75 28.925 1.75H286v-54h-29.607c-26.183 0-29.539.177-29.019 1.532M948 952v27h29.607c27.79 0 29.565-.107 28.925-1.75-5.435-13.945-5.393-36.419.094-50.718.52-1.355-2.836-1.532-29.019-1.532H948v27m116.927-23.75c-13.867 7.213-18.728 23.154-11.252 36.898 5.134 9.439 15.083 14.605 26.187 13.598 23.441-2.125 32.849-31.854 14.933-47.189-8.577-7.342-19.736-8.577-29.868-3.307m-466.302 78.304c-41.28 8.202-72.135 39.139-80.73 80.946-.679 3.3-1.234 11.4-1.234 18 0 17.196 2.921 29.645 10.546 44.94 5.283 10.596 8.784 15.525 17.531 24.681C563.734 1195.004 589.466 1206 617 1206c27.615 0 53.21-10.937 72.262-30.879 8.747-9.156 12.248-14.085 17.531-24.681 16.451-33.001 13.75-72.081-7.074-102.349-8.242-11.978-24.241-25.809-37.719-32.606-18.361-9.259-43.73-12.834-63.375-8.931M181 1123.5v96.5h105v-193H181v96.5m767 0v96.5h105v-193H948v96.5m-516.287-92.1c-6.013 1.645-11.483 5.991-14.713 11.689l-2.5 4.411v116l2.5 4.453c3.264 5.814 9.645 10.591 15.957 11.944 10.212 2.19 20.846-2.687 26.043-11.944l2.5-4.453v-58c0-57.894-.004-58.008-2.206-62.124-5.304-9.915-16.826-14.918-27.581-11.976m358 0c-6.013 1.645-11.483 5.991-14.713 11.689l-2.5 4.411v116l2.5 4.453c5.197 9.257 15.831 14.134 26.043 11.944 6.312-1.353 12.693-6.13 15.957-11.944l2.5-4.453v-58c0-57.894-.004-58.008-2.206-62.124-5.304-9.915-16.826-14.918-27.581-11.976M604 1054.427c-26.269 7.285-43.023 32.432-39.091 58.676 3.171 21.167 20.322 39.536 41.069 43.986 8.465 1.815 22.258.677 30.022-2.478 17.601-7.152 30.357-23.238 33.079-41.714 3.819-25.92-13.382-51.826-38.723-58.322-7.209-1.848-19.969-1.92-26.356-.148" fill="undefined" fill-rule="evenodd"/></svg>